<svg width="375" height="822" viewBox="0 0 375 822" fill="none" xmlns="http://www.w3.org/2000/svg">
<g clip-path="url(#clip0_607_2761)">
<rect width="375" height="822" fill="#7E3D29"/>
<path d="M281.079 -12.4299C252.811 39.5576 288.73 104.852 310.223 131C298.51 84.5826 314.28 61.9412 323.63 56.4226C378.304 40.8675 389.252 4.03961 387.892 -12.4299H281.079Z" fill="#1A3A49"/>
<path d="M227.454 85.0467C202.349 38.8768 205.531 -2.88854 210.259 -18H240.132C216.234 7.37487 221.723 61.2707 227.454 85.0467Z" fill="#1A3A49"/>
<path d="M277.38 753.568C271.955 775.109 258.734 812.269 252.801 828.156H205.533C209.991 810.453 227.364 784.672 235.493 773.995C249.223 748.864 257.697 680.58 260.218 649.579C264.756 598.698 292.651 565.242 306.032 554.874C284.972 584.833 278.156 611.511 277.38 621.105C271.33 633.485 273.793 678.877 275.78 700.026C281.132 725.776 279.077 746.45 277.38 753.568Z" fill="#1A3A49"/>
<path d="M414.53 130.559C396.884 60.49 424.824 19.6576 441 8V176.364C426.805 191.467 435.085 210.615 441 218.3V352.93C389.572 352.93 377.685 306.712 378.17 283.603C378.17 266.891 365.565 253.531 359.263 248.94C298.411 211.559 354.56 131.335 390.241 95.896C349.635 139.101 359.166 172.392 369.007 183.637C404.495 205.437 414.142 157.335 414.53 130.559Z" fill="#1A3A49"/>
<path d="M91.9442 773.995C99.7383 804.944 86.5623 827.847 79 835.429L104.016 841C119.723 824.287 110.56 789.366 104.016 773.995C92.5286 752.826 88.6608 729.892 88.1627 721.072C81.2436 733.823 87.8007 761.667 91.9442 773.995Z" fill="#1A3A49"/>
<path d="M170.002 427.612C159.66 384.23 186.124 329.795 200.649 308C173.479 358.2 200.755 414.959 217.789 437.063C247.071 468.299 246.488 485.669 251.487 520.885C257.732 564.887 205.007 631.356 205.007 631.356C205.007 631.356 192.458 680.168 181.186 710.374C169.275 742.291 150.49 766.049 132.818 784.125C167.329 739.75 153.104 700.561 141.678 686.514C116.23 665.318 109.384 630.271 109.142 615.397C107.283 590.235 124.151 553.267 132.818 537.928C151.293 500.247 149.909 466.347 146.907 454.107C157.713 475.302 156.154 499.917 154.024 509.574C141.242 566.096 163.707 575.062 176.538 572.479C212.908 555.87 201.085 510.194 190.627 489.432C182.609 474.434 173.536 441.97 170.002 427.612Z" fill="#1A3A49"/>
<path d="M363.039 454.107C344.737 407.315 350.644 367.651 350.692 331.086C350.692 357.983 402.885 402.719 428.982 421.725C465.236 460.397 444.088 509.11 428.982 528.632C373.09 588.252 398.044 651.911 417.507 676.288C454.343 744.344 421.332 801.119 400.223 821H311.475C354.585 775.014 357.374 801.943 311.475 735.474C265.576 669.006 320.432 589.58 350.692 564.268C395.081 516.919 383.374 466.347 363.039 454.107Z" fill="#1A3A49"/>
<path d="M269.167 162.471C269.749 113.65 249.346 87.8151 239.071 81C269.022 140.632 249.394 174.088 253.465 177.03C256.722 179.385 237.957 230.363 228.167 255.558C212.349 274.269 215.276 308.891 218.717 323.864C218.717 343.5 245.323 385.406 262.334 403.786C290 427.5 304.884 449.891 305.369 462.798C314.092 505.299 284.869 538.642 269.167 550C306.852 539.592 327.614 503.017 333.284 486.031C346.892 456.912 324.415 362.431 324.415 362.431C324.415 362.431 318.987 286.536 316.273 271.512C295.57 219.717 303.964 174.759 310.748 158.754C288.882 179.075 294.465 232.17 294.465 232.17C294.465 232.17 290.626 195.896 294.465 236.662C298.303 277.429 289.667 291.957 284.869 294.125C255.907 296.48 251.866 269.395 253.465 255.558C268.702 191.001 270.282 166.601 269.167 162.471Z" fill="#1A3A49"/>
<path d="M75.9883 68.0694C53.8894 46.6033 50.0124 9.07891 50.8362 -7H-8.19118C-21.2179 19.8016 2.27673 89.9905 15.6524 121.735C37.7513 173.229 43.276 209.367 43.276 221C44.3228 198.541 58.8325 159.735 65.9565 143.139C87.4738 104.518 83.5484 80.9946 75.9883 68.0694Z" fill="#1A3A49"/>
<path d="M125.153 129.149C131.339 89.3952 115.087 61.6024 106.188 52.6752C118.792 69.8896 116.983 99.9943 114.503 112.895C116.838 124.536 102.735 155.312 95.3921 169.244C70.9215 206.521 63.4101 236.069 62.7132 246.183C56.1774 284.946 96.1701 347.581 116.983 374.053C122.702 382.846 145.043 421.681 155.498 440C142.31 397.769 145.529 365.229 148.787 354.237C153.689 334.546 174.366 302.997 184.092 289.683C197.047 278.785 212.151 250.775 218.084 238.133C235.007 199.369 226.497 153.454 220.126 135.342C216.858 128.654 184.724 66.9174 169.065 36.885C155.06 10.1345 153.018 -11.5177 153.747 -19H128.509V5.61417C126.174 26.6678 144.362 59.2803 153.747 72.9548C162.617 87.0731 174.366 116.301 179.132 129.149C186.134 194.168 152.969 206.914 135.511 205.159C106.334 198.1 116.449 151.545 125.153 129.149Z" fill="#1A3A49"/>
<path d="M36.972 290.454C47.7123 247.773 16.4676 193.701 -0.497233 172V216.072C18.9054 236.732 13.2027 289.423 7.92608 313.186C-4.15702 335.47 -2.72409 389.481 -0.497233 413.701C-0.497233 447.35 35.7133 479.165 53.8186 490.866C78.9142 506.294 73.3762 564.717 67.4702 592L99.7111 552.103C129.076 497.947 125.792 453.352 120.479 437.825C120.479 408.134 82.1633 396.175 63.0055 393.907C27.0165 383.639 30.6544 320.66 36.972 290.454Z" fill="#1A3A49"/>
<path d="M48.6677 688.407C56.8391 626.68 13.5559 558.27 -4 539C5.23995 546.314 30.2559 573.368 56.4001 623.072C82.5443 672.775 67.9258 757.906 67.9258 757.906C67.9258 757.906 54.6494 806.107 56.4001 821H1.68987C-1.53133 807.805 15.0344 773.44 23.7199 757.906C35.975 734.608 44.858 717.186 48.6677 688.407Z" fill="#1A3A49"/>
</g>
<defs>
<clipPath id="clip0_607_2761">
<rect width="375" height="822" fill="white"/>
</clipPath>
</defs>
</svg>
