<svg width="375" height="812" viewBox="0 0 375 812" fill="none" xmlns="http://www.w3.org/2000/svg">
<g clip-path="url(#clip0_919_3265)">
<rect width="375" height="812" fill="#8C2600"/>
<path d="M186.998 -368.004L749.915 -43.0039V606.996L186.998 931.996L-375.918 606.996V-43.0039L186.998 -368.004Z" fill="#8C2600"/>
<path d="M82.8105 -308.884L646.626 -103.672L750.815 487.213L291.188 872.885L-272.627 667.673L-376.816 76.7884L82.8105 -308.884Z" fill="#C94F1C"/>
<path d="M187 -268L663.314 7V557L187 832L-289.314 557V7L187 -268Z" fill="#8C2600"/>
<path d="M87.1356 -199.042C95.346 -205.932 106.608 -207.917 116.68 -204.252L553.974 -45.0895C564.046 -41.4238 571.397 -32.6633 573.258 -22.1082L654.067 436.181C655.928 446.736 652.016 457.482 643.806 464.372L287.32 763.499C279.11 770.388 267.848 772.374 257.776 768.708L-179.518 609.546C-189.59 605.88 -196.941 597.12 -198.802 586.565L-279.611 128.275C-281.472 117.72 -277.56 106.974 -269.35 100.085L87.1356 -199.042Z" fill="#C94F1C"/>
<path d="M172 -159.34C181.282 -164.699 192.718 -164.699 202 -159.34L561.711 48.3398C570.993 53.6987 576.711 63.6025 576.711 74.3205V489.68C576.711 500.397 570.993 510.301 561.711 515.66L202 723.34C192.718 728.699 181.282 728.699 172 723.34L-187.711 515.66C-196.993 510.301 -202.711 500.397 -202.711 489.679V74.3205C-202.711 63.6025 -196.993 53.6987 -187.711 48.3397L172 -159.34Z" fill="#8C2600"/>
<path d="M240.565 -105.617C250.637 -109.283 261.899 -107.297 270.109 -100.407L549.991 134.441C558.201 141.33 562.112 152.077 560.251 162.632L496.807 522.44C494.946 532.995 487.595 541.756 477.524 545.421L134.198 670.382C124.127 674.047 112.865 672.061 104.654 665.172L-175.227 430.324C-183.437 423.434 -187.349 412.688 -185.488 402.133L-122.044 42.3247C-120.182 31.7696 -112.832 23.0091 -102.76 19.3434L240.565 -105.617Z" fill="#C94F1C"/>
<path d="M172.461 -58.8798C181.743 -64.2388 193.179 -64.2388 202.461 -58.8798L475.57 98.7997C484.852 104.159 490.57 114.062 490.57 124.78V440.139C490.57 450.857 484.852 460.761 475.57 466.12L202.461 623.8C193.179 629.159 181.743 629.159 172.461 623.8L-100.648 466.12C-109.93 460.761 -115.648 450.857 -115.648 440.139V124.78C-115.648 114.062 -109.93 104.159 -100.648 98.7997L172.461 -58.8798Z" fill="#8C2600"/>
<path d="M121.639 -2.30871C129.849 -9.19809 141.112 -11.1839 151.183 -7.51815L400.539 83.24C410.611 86.9057 417.961 95.6662 419.823 106.221L465.902 367.549C467.763 378.104 463.852 388.85 455.641 395.74L252.364 566.309C244.154 573.199 232.892 575.184 222.82 571.519L-26.5358 480.76C-36.6074 477.095 -43.9582 468.334 -45.8194 457.779L-91.8985 196.452C-93.7596 185.896 -89.8483 175.15 -81.6379 168.261L121.639 -2.30871Z" fill="#C94F1C"/>
<path d="M171.613 40.2745C180.895 34.9155 192.331 34.9155 201.613 40.2745L388.12 147.954C397.402 153.313 403.12 163.217 403.12 173.935V389.294C403.12 400.012 397.402 409.916 388.12 415.275L201.613 522.954C192.331 528.313 180.895 528.313 171.613 522.954L-14.8931 415.275C-24.1751 409.916 -29.8931 400.012 -29.8931 389.294V173.935C-29.8931 163.217 -24.1751 153.313 -14.8931 147.954L171.613 40.2745Z" fill="#8C2600"/>
<path d="M205.453 90.9622C215.525 87.2964 226.787 89.2823 234.997 96.1716L361.67 202.462C369.88 209.352 373.792 220.098 371.93 230.653L343.216 393.5C341.355 404.055 334.004 412.816 323.932 416.481L168.546 473.037C158.474 476.703 147.212 474.717 139.002 467.828L12.3293 361.537C4.11882 354.648 0.207491 343.902 2.06865 333.346L30.7829 170.5C32.6441 159.945 39.995 151.184 50.0666 147.518L205.453 90.9622Z" fill="#C94F1C"/>
<path d="M172 140.66C181.282 135.301 192.718 135.301 202 140.66L301.904 198.34C311.186 203.699 316.904 213.603 316.904 224.321V339.679C316.904 350.397 311.186 360.301 301.904 365.66L202 423.34C192.718 428.699 181.282 428.699 172 423.34L72.0962 365.66C62.8142 360.301 57.0962 350.397 57.0962 339.679V224.321C57.0962 213.603 62.8142 203.699 72.0962 198.34L172 140.66Z" fill="#8C2600"/>
</g>
<defs>
<clipPath id="clip0_919_3265">
<rect width="375" height="812" fill="white"/>
</clipPath>
</defs>
</svg>
