<svg width="375" height="812" viewBox="0 0 375 812" fill="none" xmlns="http://www.w3.org/2000/svg">
<g clip-path="url(#clip0_1974_1134)">
<rect width="375" height="812" fill="#344351"/>
<path d="M77.6011 -358.639C94.0884 -485.743 278.097 -485.743 294.584 -358.639C306.448 -267.176 419.216 -230.535 482.575 -297.557C570.623 -390.695 719.489 -282.537 658.118 -170.018C613.956 -89.0486 683.65 6.87725 774.303 -10.103C900.28 -33.6998 957.142 141.303 841.355 196.26C758.034 235.807 758.034 354.378 841.355 393.926C957.142 448.883 900.28 623.886 774.303 600.289C683.65 583.309 613.956 679.235 658.118 760.204C719.489 872.723 570.623 980.881 482.575 887.743C419.216 820.721 306.448 857.362 294.584 948.825C278.097 1075.93 94.0884 1075.93 77.6011 948.825C65.737 857.362 -47.0307 820.721 -110.39 887.743C-198.438 980.881 -347.304 872.723 -285.933 760.204C-241.77 679.235 -311.465 583.309 -402.118 600.289C-528.095 623.886 -584.957 448.883 -469.169 393.926C-385.849 354.378 -385.849 235.807 -469.169 196.26C-584.957 141.303 -528.095 -33.6998 -402.118 -10.103C-311.465 6.87725 -241.77 -89.0486 -285.933 -170.018C-347.304 -282.537 -198.438 -390.695 -110.39 -297.557C-47.0307 -230.535 65.737 -267.176 77.6011 -358.639Z" fill="#344351"/>
<path d="M99.8818 -228.311C113.072 -329.994 260.278 -329.994 273.468 -228.311C282.96 -155.14 373.174 -125.828 423.861 -179.446C494.299 -253.956 613.392 -167.43 564.295 -77.4141C528.965 -12.6388 584.721 64.1019 657.243 50.5177C758.025 31.6403 803.515 171.642 710.885 215.608C644.228 247.246 644.228 342.103 710.885 373.741C803.515 417.707 758.025 557.709 657.243 538.831C584.721 525.247 528.965 601.988 564.295 666.763C613.392 756.779 494.299 843.305 423.861 768.795C373.174 715.177 282.96 744.49 273.468 817.66C260.278 919.343 113.072 919.343 99.8818 817.66C90.3904 744.49 0.17621 715.177 -50.5111 768.795C-120.949 843.305 -240.042 756.779 -190.946 666.763C-155.615 601.988 -211.371 525.247 -283.893 538.831C-384.675 557.709 -430.165 417.707 -337.535 373.741C-270.878 342.103 -270.878 247.246 -337.535 215.608C-430.165 171.642 -384.675 31.6403 -283.893 50.5177C-211.371 64.1019 -155.615 -12.6389 -190.946 -77.4142C-240.042 -167.43 -120.949 -253.956 -50.5111 -179.446C0.17621 -125.828 90.3904 -155.141 99.8818 -228.311Z" fill="#447A8D"/>
<path d="M117.24 -123.714C127.792 -205.06 245.557 -205.06 256.109 -123.714C263.702 -65.1776 335.873 -41.7278 376.423 -84.6218C432.774 -144.23 528.048 -75.0091 488.771 -2.99656C460.507 48.8237 505.111 110.216 563.129 99.3489C643.755 84.2469 680.146 196.249 606.042 231.421C552.717 256.732 552.717 332.617 606.042 357.927C680.146 393.1 643.754 505.102 563.129 490C505.111 479.132 460.507 540.525 488.771 592.345C528.048 664.358 432.774 733.579 376.423 673.971C335.873 631.076 263.702 654.526 256.109 713.063C245.557 794.409 127.792 794.409 117.24 713.063C109.647 654.526 37.4754 631.076 -3.07457 673.971C-59.4252 733.579 -154.7 664.358 -115.422 592.345C-87.1581 540.525 -131.762 479.132 -189.78 490C-270.406 505.102 -306.797 393.1 -232.693 357.927C-179.368 332.617 -179.368 256.732 -232.693 231.421C-306.797 196.249 -270.406 84.2469 -189.78 99.3489C-131.762 110.216 -87.158 48.8237 -115.422 -2.99656C-154.699 -75.0092 -59.4252 -144.23 -3.07451 -84.6217C37.4754 -41.7278 109.647 -65.1776 117.24 -123.714Z" fill="#344351"/>
<path d="M131.392 -39.7714C139.833 -104.848 234.046 -104.848 242.487 -39.7714C248.562 7.05786 306.299 25.8178 338.739 -8.49743C383.819 -56.184 460.039 -0.807309 428.617 56.8028C406.005 98.2589 441.689 147.373 488.103 138.679C552.604 126.598 581.717 216.199 522.434 244.337C479.773 264.585 479.773 325.294 522.434 345.542C581.717 373.68 552.604 463.281 488.103 451.2C441.689 442.506 406.005 491.62 428.617 533.076C460.039 590.686 383.819 646.063 338.739 598.376C306.299 564.061 248.562 582.821 242.487 629.65C234.046 694.727 139.833 694.727 131.392 629.65C125.317 582.821 67.5803 564.061 35.1403 598.376C-9.94016 646.063 -86.1596 590.686 -54.7376 533.076C-32.1264 491.62 -67.8099 442.506 -114.224 451.2C-178.725 463.281 -207.838 373.68 -148.555 345.542C-105.894 325.294 -105.894 264.585 -148.555 244.337C-207.838 216.199 -178.725 126.598 -114.224 138.679C-67.8099 147.373 -32.1264 98.2589 -54.7376 56.8028C-86.1596 -0.807279 -9.94016 -56.184 35.1403 -8.4974C67.5803 25.8178 125.317 7.05789 131.392 -39.7714Z" fill="#447A8D"/>
<path d="M142.843 27.5126C149.596 -24.5489 224.966 -24.5489 231.719 27.5126C236.579 64.976 282.769 79.9839 308.721 52.5317C344.785 14.3825 405.761 58.6839 380.623 104.772C362.534 137.937 391.081 177.228 428.212 170.273C479.813 160.608 503.103 232.289 455.677 254.799C421.548 270.998 421.548 319.565 455.677 335.763C503.103 358.274 479.813 429.955 428.212 420.29C391.081 413.334 362.534 452.626 380.623 485.791C405.761 531.879 344.785 576.18 308.721 538.031C282.769 510.579 236.579 525.587 231.719 563.05C224.966 615.112 149.596 615.112 142.843 563.05C137.984 525.587 91.7939 510.579 65.842 538.031C29.7776 576.18 -31.198 531.879 -6.06042 485.791C12.0286 452.626 -16.5182 413.334 -53.6497 420.29C-105.25 429.955 -128.541 358.274 -81.1141 335.763C-46.9859 319.565 -46.9859 270.998 -81.1141 254.799C-128.541 232.289 -105.25 160.608 -53.6497 170.273C-16.5182 177.228 12.0286 137.937 -6.06042 104.772C-31.198 58.6839 29.7776 14.3825 65.842 52.5317C91.7939 79.9839 137.984 64.976 142.843 27.5126Z" fill="#344351"/>
<path d="M151.731 81.0663C157.133 39.4171 217.429 39.4171 222.832 81.0663C226.719 111.037 263.671 123.043 284.433 101.082C313.284 70.5622 362.065 106.003 341.955 142.874C327.483 169.406 350.321 200.839 380.026 195.275C421.306 187.542 439.939 244.887 401.998 262.896C374.695 275.855 374.695 314.708 401.998 327.667C439.939 345.675 421.306 403.02 380.026 395.288C350.321 389.724 327.483 421.157 341.955 447.689C362.065 484.559 313.284 520 284.433 489.481C263.671 467.519 226.719 479.525 222.832 509.496C217.429 551.145 157.133 551.145 151.731 509.496C147.843 479.525 110.891 467.519 90.1298 489.481C61.2783 520 12.4978 484.559 32.6079 447.689C47.0791 421.157 24.2416 389.724 -5.46358 395.288C-46.7438 403.02 -65.3763 345.675 -27.435 327.667C-0.132495 314.708 -0.132495 275.855 -27.435 262.896C-65.3763 244.887 -46.7438 187.542 -5.46361 195.275C24.2416 200.839 47.0791 169.406 32.6079 142.874C12.4978 106.003 61.2783 70.5623 90.1298 101.082C110.891 123.043 147.843 111.037 151.731 81.0663Z" fill="#447A8D"/>
<path d="M157.185 123.253C161.507 89.9337 209.743 89.9337 214.065 123.253C217.176 147.23 246.737 156.835 263.346 139.265C286.427 114.85 325.452 143.203 309.364 172.699C297.787 193.925 316.057 219.071 339.821 214.62C372.845 208.434 387.751 254.31 357.398 268.717C335.556 279.084 335.556 310.166 357.398 320.533C387.751 334.94 372.845 380.816 339.821 374.63C316.057 370.179 297.787 395.325 309.364 416.551C325.452 446.047 286.427 474.4 263.346 449.985C246.737 432.415 217.176 442.02 214.065 465.997C209.743 499.316 161.507 499.316 157.185 465.997C154.075 442.02 124.513 432.415 107.904 449.985C84.8226 474.4 45.7983 446.047 61.8863 416.551C73.4633 395.325 55.1933 370.179 31.4291 374.63C-1.59504 380.816 -16.501 334.94 13.852 320.533C35.694 310.166 35.694 279.084 13.852 268.717C-16.501 254.31 -1.59501 208.434 31.4292 214.62C55.1933 219.071 73.4633 193.925 61.8863 172.699C45.7983 143.203 84.8226 114.85 107.904 139.265C124.513 156.835 154.074 147.23 157.185 123.253Z" fill="#344351"/>
<path d="M162.748 157.402C166.205 130.747 204.795 130.747 208.252 157.402C210.74 176.584 234.39 184.268 247.677 170.212C266.142 150.68 297.361 173.362 284.491 196.959C275.229 213.94 289.845 234.057 308.857 230.496C335.276 225.547 347.201 262.248 322.918 273.773C305.445 282.067 305.445 306.933 322.918 315.227C347.201 326.752 335.276 363.453 308.857 358.504C289.845 354.943 275.229 375.06 284.491 392.041C297.361 415.638 266.142 438.32 247.677 418.788C234.39 404.732 210.74 412.416 208.252 431.598C204.795 458.253 166.205 458.253 162.748 431.598C160.26 412.416 136.61 404.732 123.323 418.788C104.858 438.32 73.6386 415.638 86.5091 392.041C95.7706 375.06 81.1547 354.943 62.1433 358.504C35.724 363.453 23.7992 326.752 48.0816 315.227C65.5552 306.933 65.5552 282.067 48.0816 273.773C23.7992 262.248 35.724 225.547 62.1433 230.496C81.1547 234.057 95.7706 213.94 86.5091 196.959C73.6386 173.362 104.858 150.68 123.323 170.212C136.61 184.268 160.26 176.584 162.748 157.402Z" fill="#447A8D"/>
<path d="M168.798 185.322C171.564 163.998 202.436 163.998 205.202 185.322C207.192 200.667 226.112 206.814 236.742 195.57C251.514 179.944 276.489 198.09 266.193 216.967C258.784 230.552 270.476 246.645 285.685 243.797C306.821 239.838 316.361 269.198 296.935 278.419C282.956 285.054 282.956 304.946 296.935 311.581C316.361 320.802 306.821 350.162 285.685 346.203C270.476 343.355 258.784 359.448 266.193 373.033C276.489 391.91 251.514 410.056 236.742 394.43C226.112 383.186 207.192 389.333 205.202 404.678C202.436 426.002 171.564 426.002 168.798 404.678C166.808 389.333 147.888 383.186 137.258 394.43C122.486 410.056 97.5109 391.91 107.807 373.033C115.216 359.448 103.524 343.355 88.3146 346.203C67.1792 350.162 57.6393 320.802 77.0653 311.581C91.0441 304.946 91.0442 285.054 77.0653 278.419C57.6393 269.198 67.1792 239.838 88.3146 243.797C103.524 246.645 115.216 230.552 107.807 216.967C97.5109 198.09 122.486 179.944 137.258 195.57C147.888 206.814 166.808 200.667 168.798 185.322Z" fill="#344351"/>
<path d="M172.439 207.258C174.651 190.198 199.349 190.198 201.561 207.258C203.154 219.534 218.289 224.451 226.793 215.456C238.611 202.955 258.591 217.472 250.354 232.574C244.427 243.441 253.781 256.316 265.948 254.037C282.857 250.87 290.489 274.359 274.948 281.735C263.765 287.043 263.765 302.957 274.948 308.265C290.489 315.641 282.857 339.13 265.948 335.963C253.781 333.684 244.427 346.559 250.354 357.426C258.591 372.528 238.611 387.045 226.793 374.544C218.289 365.549 203.154 370.466 201.561 382.742C199.349 399.802 174.651 399.802 172.439 382.742C170.846 370.466 155.711 365.549 147.207 374.544C135.389 387.045 115.409 372.528 123.646 357.426C129.573 346.559 120.219 333.684 108.052 335.963C91.1433 339.13 83.5115 315.641 99.0522 308.265C110.235 302.957 110.235 287.043 99.0522 281.735C83.5115 274.359 91.1433 250.87 108.052 254.037C120.219 256.316 129.573 243.441 123.646 232.574C115.409 217.472 135.389 202.955 147.207 215.456C155.711 224.451 170.846 219.534 172.439 207.258Z" fill="#447A8D"/>
</g>
<defs>
<clipPath id="clip0_1974_1134">
<rect width="375" height="812" fill="white"/>
</clipPath>
</defs>
</svg>
