<svg width="375" height="812" viewBox="0 0 375 812" fill="none" xmlns="http://www.w3.org/2000/svg">
<g clip-path="url(#clip0_1974_1281)">
<rect width="375" height="812" fill="white"/>
<rect x="-302.002" y="-166" width="980" height="980" rx="15" fill="#C94F1C"/>
<rect x="-275.684" y="-205.973" width="980" height="980" rx="15" transform="rotate(3 -275.684 -205.973)" fill="#8C2600"/>
<rect x="-282.41" y="-161.065" width="940" height="940" rx="15" fill="#C94F1C"/>
<rect x="-285.344" y="-116.897" width="900" height="900" rx="15" transform="rotate(-3 -285.344 -116.897)" fill="#8C2600"/>
<rect x="-289" y="-73.7627" width="860" height="860" rx="15" transform="rotate(-6 -289 -73.7627)" fill="#C94F1C"/>
<rect x="-247.305" y="-79.0459" width="820" height="820" rx="15" transform="rotate(-3 -247.305 -79.0459)" fill="#8C2600"/>
<rect x="-203.369" y="-81.3701" width="780" height="780" rx="15" fill="#C94F1C"/>
<rect x="-164.271" y="-79" width="740" height="740" rx="15" transform="rotate(3 -164.271 -79)" fill="#8C2600"/>
<rect x="-124.498" y="-74.668" width="700" height="700" rx="23.4375" transform="rotate(6 -124.498 -74.668)" fill="#C94F1C"/>
<rect x="-125.459" y="-38" width="660" height="660" rx="23.4375" transform="rotate(3 -125.459 -38)" fill="#C94F1C"/>
<rect x="-126.459" y="-38" width="660" height="660" rx="23.4375" transform="rotate(3 -126.459 -38)" fill="#8C2600"/>
<rect x="-123.295" y="-0.294434" width="620" height="620" rx="23.4375" fill="#C94F1C"/>
<rect x="-118" y="35.3545" width="580" height="580" rx="23.4375" transform="rotate(-3 -118 35.3545)" fill="#8C2600"/>
<rect x="-109.742" y="69.7017" width="540" height="540" rx="23.4375" transform="rotate(-6 -109.742 69.7017)" fill="#C94F1C"/>
<rect x="-75.9785" y="72.1895" width="500" height="500" rx="15" transform="rotate(-3 -75.9785 72.1895)" fill="#8C2600"/>
<rect x="-43" y="80" width="460" height="460" rx="15" fill="#C94F1C"/>
<rect x="-12.7207" y="89.2969" width="420" height="420" rx="15" transform="rotate(3 -12.7207 89.2969)" fill="#8C2600"/>
<rect x="17.7207" y="100" width="380" height="380" rx="15" transform="rotate(6 17.7207 100)" fill="#7ABAB4"/>
<rect x="17.7207" y="100" width="380" height="380" rx="15" transform="rotate(6 17.7207 100)" fill="#C94F1C"/>
<rect x="26.1309" y="130.336" width="340" height="340" rx="15" transform="rotate(3 26.1309 130.336)" fill="#C94F1C"/>
<rect x="26.1309" y="130.336" width="340" height="340" rx="15" transform="rotate(3 26.1309 130.336)" fill="#8C2600"/>
<rect x="37" y="159" width="300" height="300" rx="15" fill="#8C2600"/>
<rect x="37" y="159" width="300" height="300" rx="15" fill="#C94F1C"/>
<rect x="51.252" y="185.858" width="260" height="260" rx="15" transform="rotate(-3 51.252 185.858)" fill="#8C2600"/>
<rect x="65.709" y="211.707" width="220" height="220" rx="15" transform="rotate(-6 65.709 211.707)" fill="#C94F1C"/>
<rect x="93.4141" y="223.833" width="180" height="180" rx="15" transform="rotate(-3 93.4141 223.833)" fill="#8C2600"/>
<rect x="115.568" y="238.567" width="140" height="140" rx="15" fill="#C94F1C"/>
</g>
<defs>
<clipPath id="clip0_1974_1281">
<rect width="375" height="812" fill="white"/>
</clipPath>
</defs>
</svg>
