<svg width="375" height="812" viewBox="0 0 375 812" fill="none" xmlns="http://www.w3.org/2000/svg">
<g clip-path="url(#clip0_2006_1307)">
<rect width="375" height="812" fill="#8C2600"/>
<path d="M115.417 -442.702C147.029 -497.383 226.032 -497.191 257.377 -442.356L523.146 22.573C537.724 48.0764 564.849 63.8146 594.225 63.8146H965.116C1029.75 63.8146 1068.9 135.193 1034.16 189.695L813.298 536.177C806.107 547.458 801.79 560.33 800.725 573.665L771.057 945.05C766.102 1007.08 696.495 1041.12 644.489 1006.96L320.898 794.364C297.128 778.747 266.956 776.585 241.202 788.654L-209.283 999.759C-275.102 1030.6 -345.482 966.769 -321.19 898.261L-230.312 641.963C-219.776 612.248 -227.238 579.123 -249.498 556.796L-631.532 173.612C-677.992 127.012 -653.279 47.4179 -588.595 35.3272L-146.128 -47.3783C-122.643 -51.7679 -102.248 -66.1966 -90.2903 -86.8801L115.417 -442.702Z" fill="#C94F1C"/>
<g clip-path="url(#clip1_2006_1307)">
<path d="M78 -2H297C294.894 -1.39731 293.418 0.495246 293.345 2.68446L293.317 3.5618C293.317 17.0587 282.375 28 268.878 28H106.122C92.6249 28 81.6835 17.0587 81.6835 3.5618L81.6545 2.68447C81.5823 0.49525 80.1059 -1.39731 78 -2Z" fill="black"/>
<path opacity="0.35" d="M338.667 17.833H355.333C356.53 17.833 357.5 18.8034 357.5 20V26C357.5 27.1965 356.53 28.166 355.333 28.166H338.667C337.47 28.166 336.5 27.1965 336.5 26V20C336.5 18.8034 337.47 17.833 338.667 17.833Z" fill="black" stroke="black"/>
<path opacity="0.4" d="M359 20.9995V24.9995C359.805 24.6607 360.328 23.8726 360.328 22.9995C360.328 22.1264 359.805 21.3383 359 20.9995" fill="black"/>
<path d="M338 20.433C338 19.8255 338.492 19.333 339.1 19.333H354.9C355.508 19.333 356 19.8255 356 20.433V25.5663C356 26.1739 355.508 26.6663 354.9 26.6663H339.1C338.492 26.6663 338 26.1739 338 25.5663V20.433Z" fill="black"/>
<path fill-rule="evenodd" clip-rule="evenodd" d="M323.33 19.6079C325.546 19.608 327.677 20.4594 329.283 21.9862C329.404 22.1041 329.597 22.1026 329.716 21.9829L330.872 20.8162C330.933 20.7555 330.966 20.6733 330.966 20.5877C330.965 20.5021 330.931 20.4202 330.87 20.3602C326.655 16.3207 320.005 16.3207 315.79 20.3602C315.729 20.4202 315.694 20.502 315.693 20.5876C315.693 20.6732 315.726 20.7555 315.787 20.8162L316.943 21.9829C317.062 22.1028 317.255 22.1043 317.376 21.9862C318.982 20.4593 321.114 19.6079 323.33 19.6079ZM323.33 23.4036C324.547 23.4035 325.721 23.856 326.624 24.6732C326.746 24.7892 326.938 24.7867 327.057 24.6676L328.212 23.5009C328.273 23.4397 328.307 23.3567 328.306 23.2704C328.305 23.1842 328.269 23.1018 328.207 23.0419C325.459 20.4855 321.203 20.4855 318.455 23.0419C318.393 23.1018 318.357 23.1842 318.357 23.2705C318.356 23.3568 318.39 23.4398 318.451 23.5009L319.605 24.6676C319.724 24.7867 319.916 24.7892 320.038 24.6732C320.94 23.8566 322.113 23.4041 323.33 23.4036ZM325.643 25.9574C325.645 26.0439 325.611 26.1273 325.549 26.1879L323.552 28.2036C323.493 28.2628 323.413 28.2961 323.33 28.2961C323.247 28.2961 323.167 28.2628 323.108 28.2036L321.111 26.1879C321.049 26.1272 321.015 26.0438 321.017 25.9573C321.019 25.8708 321.056 25.7889 321.12 25.7309C322.396 24.652 324.264 24.652 325.54 25.7309C325.604 25.7889 325.641 25.8709 325.643 25.9574Z" fill="black"/>
<path fill-rule="evenodd" clip-rule="evenodd" d="M309.666 17.6665H308.666C308.114 17.6665 307.666 18.1142 307.666 18.6665V27.3332C307.666 27.8855 308.114 28.3332 308.666 28.3332H309.666C310.218 28.3332 310.666 27.8855 310.666 27.3332V18.6665C310.666 18.1142 310.218 17.6665 309.666 17.6665ZM303.999 19.9998H304.999C305.552 19.9998 305.999 20.4476 305.999 20.9998V27.3332C305.999 27.8855 305.552 28.3332 304.999 28.3332H303.999C303.447 28.3332 302.999 27.8855 302.999 27.3332V20.9998C302.999 20.4476 303.447 19.9998 303.999 19.9998ZM300.333 22.3332H299.333C298.78 22.3332 298.333 22.7809 298.333 23.3332V27.3332C298.333 27.8855 298.78 28.3332 299.333 28.3332H300.333C300.885 28.3332 301.333 27.8855 301.333 27.3332V23.3332C301.333 22.7809 300.885 22.3332 300.333 22.3332ZM295.666 24.3332H294.666C294.114 24.3332 293.666 24.7809 293.666 25.3332V27.3332C293.666 27.8855 294.114 28.3332 294.666 28.3332H295.666C296.218 28.3332 296.666 27.8855 296.666 27.3332V25.3332C296.666 24.7809 296.218 24.3332 295.666 24.3332Z" fill="black"/>
<rect x="24" y="12" width="54" height="21" rx="10.5" stroke="black"/>
<path d="M40.9428 16.9418C41.4648 16.9453 41.9726 17.0376 42.4662 17.2188C42.9634 17.3963 43.4108 17.6875 43.8085 18.0923C44.2063 18.4936 44.5223 19.0316 44.7567 19.7063C44.9911 20.381 45.1083 21.2156 45.1083 22.2099C45.1118 23.1474 45.0124 23.9854 44.81 24.7241C44.6111 25.4592 44.3252 26.0806 43.9524 26.5884C43.5795 27.0962 43.1303 27.4833 42.6047 27.7496C42.0791 28.016 41.4879 28.1491 40.8309 28.1491C40.142 28.1491 39.5312 28.0142 38.9985 27.7443C38.4694 27.4744 38.0415 27.1051 37.7148 26.6364C37.3881 26.1676 37.1875 25.6314 37.1129 25.0277H39.0571C39.1566 25.4609 39.359 25.8054 39.6644 26.0611C39.9733 26.3132 40.3622 26.4393 40.8309 26.4393C41.5873 26.4393 42.1697 26.1108 42.5781 25.4538C42.9865 24.7969 43.1907 23.8842 43.1907 22.7159H43.1161C42.9421 23.0284 42.7166 23.2983 42.4396 23.5256C42.1626 23.7493 41.8483 23.9215 41.4968 24.0423C41.1487 24.163 40.7794 24.2234 40.3888 24.2234C39.7496 24.2234 39.1743 24.0707 38.663 23.7653C38.1551 23.4599 37.7521 23.0408 37.4538 22.5082C37.159 21.9755 37.0099 21.3665 37.0063 20.6811C37.0063 19.9709 37.1697 19.3335 37.4964 18.7688C37.8267 18.2006 38.2865 17.7532 38.876 17.4265C39.4655 17.0962 40.1544 16.9347 40.9428 16.9418ZM40.9481 18.5398C40.5646 18.5398 40.2184 18.6339 39.9094 18.8221C39.604 19.0067 39.3625 19.2589 39.185 19.5785C39.011 19.8945 38.924 20.2479 38.924 20.6385C38.9275 21.0256 39.0145 21.3771 39.185 21.6932C39.359 22.0092 39.5951 22.2596 39.8934 22.4442C40.1953 22.6289 40.5397 22.7212 40.9268 22.7212C41.2144 22.7212 41.4826 22.6662 41.7311 22.5561C41.9797 22.446 42.1963 22.2933 42.381 22.098C42.5692 21.8991 42.7148 21.6737 42.8178 21.4215C42.9243 21.1694 42.9758 20.9031 42.9723 20.6225C42.9723 20.2496 42.8835 19.9052 42.7059 19.5891C42.5319 19.2731 42.2922 19.0192 41.9868 18.8274C41.685 18.6357 41.3387 18.5398 40.9481 18.5398ZM47.5912 26.6896C47.2681 26.6896 46.9911 26.576 46.7603 26.3487C46.5294 26.1179 46.4158 25.8409 46.4193 25.5178C46.4158 25.1982 46.5294 24.9247 46.7603 24.6974C46.9911 24.4702 47.2681 24.3565 47.5912 24.3565C47.9037 24.3565 48.1754 24.4702 48.4062 24.6974C48.6406 24.9247 48.7595 25.1982 48.7631 25.5178C48.7595 25.7344 48.7027 25.9315 48.5926 26.109C48.4861 26.2866 48.3441 26.4286 48.1665 26.5352C47.9925 26.6381 47.8007 26.6896 47.5912 26.6896ZM47.5912 21.283C47.2681 21.283 46.9911 21.1694 46.7603 20.9421C46.5294 20.7113 46.4158 20.4343 46.4193 20.1112C46.4158 19.7915 46.5294 19.5181 46.7603 19.2908C46.9911 19.06 47.2681 18.9446 47.5912 18.9446C47.9037 18.9446 48.1754 19.06 48.4062 19.2908C48.6406 19.5181 48.7595 19.7915 48.7631 20.1112C48.7595 20.3242 48.7027 20.5195 48.5926 20.6971C48.4861 20.8746 48.3441 21.0167 48.1665 21.1232C47.9925 21.2298 47.8007 21.283 47.5912 21.283ZM50.0356 25.9759V24.4045L54.6645 17.0909H55.9748V19.3281H55.1758L52.0597 24.266V24.3512H58.521V25.9759H50.0356ZM55.2397 28V25.4964L55.2611 24.7933V17.0909H57.1254V28H55.2397ZM64.0135 17.0909V28H62.0373V19.0138H61.9734L59.4219 20.6438V18.8327L62.1332 17.0909H64.0135Z" fill="black"/>
</g>
<path d="M130.134 -303.362C155.423 -347.106 218.625 -346.952 243.701 -303.085L456.317 68.8584C467.979 89.2611 489.679 101.852 513.18 101.852H809.893C861.599 101.852 892.918 158.955 865.125 202.556L688.439 479.742C682.686 488.767 679.232 499.064 678.38 509.732L654.646 806.84C650.682 856.462 594.996 883.699 553.391 856.365L294.519 686.291C275.502 673.798 251.365 672.068 230.761 681.723L-129.626 850.607C-182.282 875.282 -238.585 824.215 -219.152 769.409L-146.45 564.37C-138.02 540.598 -143.99 514.098 -161.798 496.236L-467.425 189.69C-504.594 152.409 -484.823 88.7343 -433.076 79.0618L-79.1021 12.8974C-60.3146 9.38565 -43.9982 -2.15726 -34.4322 -18.704L130.134 -303.362Z" fill="#8C2600"/>
<path d="M141.107 -191.089C161.339 -226.085 211.9 -225.962 231.961 -190.868L402.053 106.687C411.384 123.009 428.743 133.081 447.544 133.081H684.914C726.28 133.081 751.334 178.764 729.1 213.645L587.751 435.393C583.149 442.613 580.386 450.851 579.704 459.386L560.717 697.072C557.545 736.77 512.997 758.559 479.713 736.692L272.615 600.633C257.402 590.638 238.092 589.255 221.609 596.979L-66.7011 732.085C-108.825 751.826 -153.868 710.972 -138.322 667.127L-80.1596 503.096C-73.4163 484.078 -78.1921 462.878 -92.4386 448.589L-336.94 203.352C-366.675 173.528 -350.858 122.587 -309.461 114.849L-26.2817 61.9179C-11.2517 59.1085 1.80145 49.8742 9.45425 36.6368L141.107 -191.089Z" fill="#C94F1C"/>
<path d="M150.486 -100.871C166.671 -128.868 207.12 -128.77 223.169 -100.694L359.243 137.349C366.707 150.407 380.595 158.465 395.635 158.465H585.531C618.624 158.465 638.667 195.011 620.88 222.916L507.801 400.315C504.119 406.091 501.909 412.681 501.363 419.509L486.173 609.657C483.636 641.416 447.998 658.847 421.37 641.354L255.692 532.506C243.521 524.51 228.073 523.404 214.887 529.583L-15.7608 637.668C-49.4602 653.46 -85.4947 620.778 -73.0573 585.701L-26.5277 454.477C-21.1331 439.263 -24.9537 422.303 -36.3509 410.871L-231.952 214.681C-255.74 190.822 -243.087 150.07 -209.969 143.88L16.5746 101.534C28.5987 99.2868 39.0412 91.8993 45.1634 81.3094L150.486 -100.871Z" fill="#8C2600"/>
<path d="M157.788 -29.4971C170.737 -51.8945 203.096 -51.8157 215.935 -29.3554L324.794 161.079C330.765 171.526 341.876 177.972 353.908 177.972H505.825C532.299 177.972 548.334 207.209 534.104 229.533L443.641 371.452C440.695 376.072 438.927 381.345 438.491 386.807L426.339 538.926C424.309 564.333 395.798 578.278 374.496 564.283L241.954 477.205C232.217 470.808 219.859 469.923 209.31 474.866L24.7913 561.335C-2.16828 573.968 -30.9958 547.822 -21.0458 519.761L16.1778 414.782C20.4935 402.61 17.437 389.042 8.31932 379.897L-148.162 222.945C-167.192 203.858 -157.069 171.256 -130.575 166.304L50.6597 132.427C60.279 130.629 68.6329 124.719 73.5307 116.248L157.788 -29.4971Z" fill="#C94F1C"/>
<path d="M163.631 28.4023C173.989 10.4844 199.877 10.5474 210.148 28.5156L297.235 180.864C302.012 189.221 310.901 194.378 320.527 194.378H442.06C463.239 194.378 476.067 217.767 464.683 235.626L392.312 349.161C389.956 352.858 388.542 357.076 388.192 361.446L378.471 483.141C376.847 503.466 354.039 514.622 336.997 503.426L230.963 433.764C223.174 428.647 213.287 427.938 204.848 431.893L57.233 501.068C35.6654 511.175 12.6034 490.258 20.5633 467.809L50.3423 383.825C53.7948 374.088 51.3496 363.234 44.0555 355.918L-81.1294 230.356C-96.3537 215.086 -88.2555 189.005 -67.0599 185.043L77.9278 157.942C85.6232 156.504 92.3063 151.776 96.2246 144.998L163.631 28.4023Z" fill="#8C2600"/>
<path d="M168.505 74.3218C176.792 59.9875 197.502 60.038 205.719 74.4125L275.388 196.291C279.21 202.976 286.32 207.102 294.021 207.102H391.248C408.191 207.102 418.454 225.814 409.346 240.101L351.45 330.929C349.565 333.886 348.433 337.261 348.154 340.756L340.377 438.113C339.078 454.373 320.831 463.298 307.198 454.341L222.37 398.611C216.139 394.517 208.23 393.951 201.478 397.114L83.3864 452.454C66.1323 460.54 47.6827 443.806 54.0507 425.847L77.8738 358.66C80.6359 350.871 78.6797 342.187 72.8444 336.334L-27.3035 235.885C-39.4829 223.669 -33.0044 202.804 -16.0479 199.634L99.9422 177.954C106.099 176.803 111.445 173.02 114.58 167.598L168.505 74.3218Z" fill="#C94F1C"/>
<path d="M171.604 110.857C178.233 99.39 194.801 99.4304 201.375 110.93L257.111 208.433C260.168 213.781 265.856 217.082 272.017 217.082H349.798C363.353 217.082 371.563 232.051 364.277 243.481L317.96 316.143C316.452 318.509 315.547 321.208 315.323 324.005L309.101 401.89C308.062 414.898 293.465 422.038 282.558 414.873L214.696 370.289C209.711 367.014 203.384 366.561 197.983 369.092L103.509 413.363C89.7059 419.832 74.9462 406.445 80.0405 392.078L99.099 338.328C101.309 332.096 99.7438 325.15 95.0755 320.467L14.9572 240.108C5.21367 230.335 10.3965 213.643 23.9616 211.107L116.754 193.763C121.679 192.842 125.956 189.816 128.464 185.479L171.604 110.857Z" fill="#8C2600"/>
<path d="M171.693 145.857C178.323 134.39 194.891 134.43 201.464 145.93L242.1 217.016C245.157 222.365 250.845 225.665 257.006 225.665H310.977C324.532 225.665 332.742 240.635 325.456 252.064L292.227 304.194C290.719 306.56 289.814 309.259 289.59 312.056L285.143 367.731C284.104 380.739 269.506 387.879 258.6 380.714L210.761 349.285C205.776 346.01 199.449 345.557 194.048 348.088L127.647 379.204C113.843 385.673 99.0837 372.286 104.178 357.919L115.956 324.702C118.166 318.47 116.601 311.524 111.932 306.841L53.9572 248.692C44.2137 238.919 49.3965 222.227 62.9616 219.691L129.251 207.3C134.176 206.38 138.453 203.354 140.961 199.016L171.693 145.857Z" fill="#C94F1C"/>
<path d="M171.565 172.857C178.194 161.39 194.762 161.43 201.336 172.93L229.891 222.883C232.948 228.232 238.637 231.532 244.797 231.532H279.721C293.275 231.532 301.485 246.501 294.199 257.931L271.441 293.635C269.933 296 269.028 298.7 268.804 301.497L265.776 339.404C264.737 352.412 250.139 359.552 239.233 352.387L207.414 331.482C202.429 328.207 196.101 327.754 190.7 330.285L146.757 350.877C132.953 357.346 118.194 343.959 123.288 329.592L129.242 312.801C131.451 306.57 129.886 299.623 125.218 294.94L84.9572 254.559C75.2137 244.786 80.3965 228.094 93.9616 225.558L139.049 217.13C143.974 216.21 148.251 213.184 150.759 208.846L171.565 172.857Z" fill="#8C2600"/>
<path d="M171.662 194.857C178.292 183.39 194.86 183.43 201.433 194.93L220.324 227.977C223.381 233.325 229.07 236.626 235.23 236.626H254.915C268.47 236.626 276.68 251.595 269.394 263.025L255.012 285.587C253.504 287.953 252.599 290.652 252.375 293.449L250.483 317.142C249.444 330.151 234.846 337.291 223.939 330.125L204.935 317.64C199.95 314.365 193.623 313.911 188.222 316.442L162.245 328.616C148.441 335.084 133.682 321.697 138.776 307.33L140.07 303.681C142.28 297.449 140.715 290.502 136.046 285.82L109.957 259.652C100.214 249.879 105.396 233.187 118.962 230.652L147.087 225.394C152.012 224.474 156.29 221.448 158.797 217.11L171.662 194.857Z" fill="#C94F1C"/>
</g>
<defs>
<clipPath id="clip0_2006_1307">
<rect width="375" height="812" fill="white"/>
</clipPath>
<clipPath id="clip1_2006_1307">
<rect width="375" height="44" fill="white"/>
</clipPath>
</defs>
</svg>
