<svg width="375" height="812" viewBox="0 0 375 812" fill="none" xmlns="http://www.w3.org/2000/svg">
<g clip-path="url(#clip0_1974_1060)">
<rect width="375" height="812" fill="#344351"/>
<path d="M-361.891 554.081L-274.181 574.65C-224.288 586.351 -177.085 607.465 -135.106 636.86C-87.3588 670.293 -47.065 714.326 -17.7226 764.691C1.93966 798.441 16.9057 835.26 26.232 873.19L38.5121 923.132L61.8777 1034.51L96.2933 1166.3L104.835 1191.66C124.834 1251.03 160.448 1303.93 207.938 1344.79C238.403 1371.01 273.167 1391.76 310.698 1406.14L314.754 1407.69C366.811 1427.64 422.676 1435.66 478.244 1431.18C550.223 1425.38 618.971 1398.81 676.149 1354.71L679.966 1351.76C710.669 1328.08 737.6 1299.87 759.841 1268.11C825.31 1174.61 845.706 1056.8 815.48 946.732L812.224 934.876C804.589 907.073 794.039 880.155 780.75 854.569L676.641 654.126L620.058 514.743C605.15 478.021 595.193 439.478 590.446 400.13L586.844 370.265C578.015 297.065 587.428 222.817 614.245 154.137L645.263 74.6959L691.99 -8.60675C711.749 -43.8312 726.005 -81.8697 734.265 -121.404L742.07 -158.756C755.122 -221.229 746.871 -286.273 718.634 -343.508L715.331 -350.202C692.956 -395.554 657.863 -433.411 614.336 -459.155C546.088 -499.518 463.172 -506.598 389.069 -478.39L383.613 -476.313C356.207 -465.88 330.663 -451.093 307.968 -432.523L208.734 -351.326L83.785 -231.964C65.0794 -214.094 44.8581 -197.882 23.3486 -183.511L-27.7573 -149.363C-82.4955 -112.789 -144.974 -89.4152 -210.276 -81.0802C-245.967 -76.5249 -282.09 -76.5147 -317.783 -81.05L-485.081 -102.308L-598.021 -109.355C-666.39 -113.621 -734.199 -94.6853 -790.467 -55.6143C-846.031 -17.0316 -887.15 38.9711 -907.323 103.54L-911.483 116.856C-934.605 190.865 -926.821 271.078 -889.901 339.261C-862.717 389.464 -821.188 430.426 -770.616 456.918L-754.392 465.417C-721.36 482.72 -685.758 494.591 -648.952 500.572L-539.582 518.346L-361.891 554.081Z" fill="#174B73"/>
<path d="M-252.113 500.865L-181.946 517.32C-142.031 526.681 -104.269 543.573 -70.6854 567.088C-32.4874 593.834 -0.252397 629.061 23.2215 669.353C38.9513 696.353 50.9241 725.808 58.3852 756.152L68.2093 796.106L86.9017 885.212L114.434 990.643L121.267 1010.93C137.267 1058.43 165.758 1100.74 203.75 1133.43C228.122 1154.4 255.934 1171.01 285.958 1182.51L289.203 1183.75C330.849 1199.71 375.541 1206.13 419.995 1202.55C477.578 1197.9 532.576 1176.65 578.319 1141.37L581.373 1139.01C605.935 1120.06 627.48 1097.5 645.272 1072.09C697.648 997.289 713.965 903.039 689.784 814.986L687.179 805.501C681.071 783.259 672.631 761.724 662 741.255L578.712 580.901L533.446 469.395C521.52 440.017 513.554 409.183 509.757 377.704L506.875 353.812C499.811 295.252 507.342 235.854 528.796 180.91L553.61 117.357L590.992 50.7149C606.799 22.5353 618.204 -7.8955 624.812 -39.5227L631.055 -69.4047C641.498 -119.383 634.897 -171.418 612.307 -217.206L609.664 -222.562C591.764 -258.843 563.69 -289.129 528.868 -309.724C474.27 -342.014 407.937 -347.678 348.655 -325.112L344.29 -323.45C322.365 -315.104 301.93 -303.274 283.774 -288.418L204.387 -223.461L104.428 -127.971C89.4632 -113.675 73.286 -100.706 56.0785 -89.2082L15.1937 -61.8905C-28.5968 -32.6312 -78.5793 -13.9319 -130.822 -7.26397C-159.374 -3.61966 -188.273 -3.61156 -216.827 -7.23973L-350.666 -24.2459L-441.017 -29.8835C-495.713 -33.2963 -549.959 -18.148 -594.974 13.1088C-639.425 43.9749 -672.321 88.777 -688.459 140.432L-691.787 151.085C-710.285 210.292 -704.058 274.463 -674.522 329.009C-652.774 369.171 -619.551 401.941 -579.094 423.135L-566.114 429.934C-539.689 443.777 -511.207 453.273 -481.762 458.058L-394.266 472.277L-252.113 500.865Z" fill="#447A8D"/>
<path d="M-164.69 457.292L-108.556 470.456C-76.6242 477.945 -46.4146 491.458 -19.5478 510.27C11.0105 531.667 36.7985 559.849 55.5776 592.082C68.1615 613.682 77.7397 637.247 83.7085 661.521L91.5678 693.485L106.522 764.77L128.548 849.115L134.014 865.343C146.814 903.342 169.607 937.194 200 963.346C219.498 980.123 241.747 993.406 265.767 1002.61L268.362 1003.6C301.679 1016.37 337.433 1021.51 372.996 1018.64C419.063 1014.92 463.061 997.92 499.655 969.692L502.098 967.807C521.748 952.65 538.984 934.599 553.218 914.271C595.118 854.431 608.172 779.031 588.827 708.588L586.744 701.001C581.857 683.207 575.105 665.98 566.6 649.604L499.97 521.321L463.757 432.116C454.216 408.613 447.843 383.946 444.806 358.763L442.5 339.65C436.849 292.802 442.874 245.283 460.037 201.328L479.889 150.485L509.794 97.1718C522.439 74.6282 531.563 50.2835 536.85 24.9818L541.845 1.07624C550.198 -38.9062 544.918 -80.5347 526.846 -117.165L524.732 -121.449C510.412 -150.474 487.953 -174.703 460.095 -191.179C416.417 -217.012 363.35 -221.543 315.925 -203.489L312.432 -202.16C294.892 -195.483 278.544 -186.019 264.019 -174.134L200.51 -122.168L120.543 -45.7766C108.571 -34.3402 95.6293 -23.9647 81.8632 -14.7667L49.1554 7.08757C14.123 30.4951 -25.863 45.4544 -67.6568 50.7888C-90.4985 53.7042 -113.618 53.7107 -136.461 50.8082L-243.532 37.2033L-315.813 32.6931C-359.57 29.9629 -402.967 42.0816 -438.979 67.087C-474.54 91.7799 -500.856 127.622 -513.766 168.946L-516.429 177.468C-531.227 224.834 -526.246 276.17 -502.617 319.807C-485.219 351.937 -458.64 378.153 -426.274 395.108L-415.891 400.547C-394.751 411.621 -371.965 419.218 -348.409 423.046L-278.412 434.422L-164.69 457.292Z" fill="#174B73"/>
<path d="M-93.9516 422.833L-49.0444 433.365C-23.499 439.356 0.668731 450.166 22.1621 465.216C46.6088 482.334 67.2392 504.879 82.2624 530.666C92.3295 547.946 99.9921 566.797 104.767 586.217L111.055 611.788L123.018 668.816L140.639 736.292L145.012 749.274C155.251 779.673 173.486 806.755 197.8 827.677C213.399 841.099 231.198 851.725 250.414 859.087L252.49 859.883C279.144 870.095 307.747 874.204 336.197 871.91C373.05 868.938 408.249 855.336 437.525 832.754L439.479 831.246C455.199 819.12 468.988 804.679 480.375 788.416C513.895 740.545 524.338 680.225 508.862 623.871L507.195 617.8C503.286 603.566 497.885 589.783 491.08 576.683L437.777 474.057L408.806 402.693C401.174 383.891 396.075 364.157 393.645 344.011L391.801 328.72C387.28 291.241 392.099 253.227 405.83 218.062L421.711 177.388L445.636 134.737C455.752 116.702 463.051 97.2267 467.28 76.9854L471.276 57.8609C477.959 25.875 473.735 -7.42784 459.277 -36.732L457.586 -40.1596C446.13 -63.3795 428.163 -82.7625 405.876 -95.9432C370.934 -116.609 328.48 -120.234 290.54 -105.792L287.746 -104.728C273.714 -99.3865 260.636 -91.8156 249.016 -82.3076L198.208 -40.7348L134.234 20.3786C124.657 29.5277 114.304 37.8281 103.291 45.1865L77.1247 62.6699C49.0988 81.3959 17.1099 93.3634 -16.3251 97.631C-34.5984 99.9633 -53.0938 99.9685 -71.3684 97.6464L-157.025 86.7625L-214.85 83.1544C-249.855 80.9702 -284.573 90.6651 -313.382 110.669C-341.832 130.424 -362.884 159.097 -373.213 192.156L-375.343 198.975C-387.181 236.867 -383.196 277.936 -364.293 312.846C-350.375 338.549 -329.112 359.522 -303.219 373.086L-294.912 377.438C-278 386.297 -259.772 392.375 -240.927 395.437L-184.93 404.537L-93.9516 422.833Z" fill="#447A8D"/>
<path d="M-37.9617 395.466L-2.03598 403.892C18.4004 408.685 37.7346 417.333 54.9293 429.373C74.4866 443.067 90.991 461.103 103.01 481.733C111.063 495.556 117.193 510.638 121.013 526.174L126.043 546.63L135.614 592.252L149.71 646.233L153.209 656.619C161.401 680.939 175.988 702.604 195.44 719.341C207.919 730.079 222.158 738.58 237.531 744.47L239.192 745.106C260.515 753.276 283.397 756.563 306.157 754.728C335.64 752.35 363.799 741.469 387.219 723.403L388.783 722.197C401.359 712.496 412.39 700.943 421.5 687.933C448.316 649.636 456.67 601.38 444.289 556.296L442.956 551.44C439.829 540.052 435.507 529.027 430.064 518.547L387.421 436.445L364.245 379.354C358.138 364.312 354.06 348.525 352.116 332.408L350.64 320.176C347.024 290.193 350.879 259.781 361.863 231.65L374.569 199.11L393.708 164.99C401.801 150.562 407.641 134.981 411.024 118.788L414.22 103.489C419.567 77.8998 416.187 51.2576 404.621 27.8143L403.268 25.0722C394.104 6.49627 379.73 -9.01016 361.901 -19.5547C333.947 -36.0876 299.984 -38.9876 269.632 -27.4333L267.397 -26.5825C256.171 -22.3092 245.708 -16.2527 236.412 -8.64617L195.766 24.612L144.587 73.5028C136.925 80.8221 128.643 87.4624 119.832 93.3491L98.8994 107.336C76.4786 122.317 50.8876 131.891 24.1395 135.305C9.52089 137.171 -5.27548 137.175 -19.8952 135.317L-88.4206 126.61L-134.68 123.723C-162.685 121.976 -190.459 129.732 -213.506 145.736C-236.266 161.539 -253.108 184.478 -261.371 210.925L-263.075 216.379C-272.545 246.693 -269.357 279.549 -254.235 307.476C-243.1 328.039 -226.09 344.818 -205.376 355.669L-198.73 359.15C-185.2 366.237 -170.618 371.1 -155.542 373.55L-110.744 380.83L-37.9617 395.466Z" fill="#174B73"/>
<path d="M7.23103 374.173L35.9716 380.913C52.3207 384.748 67.788 391.666 81.5438 401.298C97.1897 412.254 110.393 426.683 120.008 443.186C126.451 454.245 131.355 466.31 134.411 478.739L138.435 495.104L146.091 531.602L157.369 574.787L160.168 583.096C166.721 602.551 178.391 619.883 193.952 633.273C203.935 641.863 215.327 648.664 227.625 653.376L228.954 653.885C246.012 660.42 264.318 663.051 282.526 661.582C306.112 659.68 328.64 650.975 347.376 636.522L348.627 635.557C358.687 627.797 367.512 618.555 374.8 608.146C396.253 577.508 402.936 538.904 393.032 502.837L391.965 498.952C389.463 489.842 386.006 481.021 381.652 472.637L347.537 406.956L328.996 361.283C324.111 349.25 320.848 336.62 319.293 323.727L318.112 313.941C315.219 289.954 318.304 265.625 327.091 243.12L337.255 217.088L352.567 189.792C359.041 178.249 363.713 165.785 366.419 152.831L368.977 140.591C373.254 120.12 370.55 98.8061 361.297 80.0514L360.215 77.8578C352.883 62.9971 341.384 50.5919 327.121 42.1562C304.758 28.9299 277.588 26.61 253.306 35.8534L251.518 36.534C242.537 39.9526 234.167 44.7979 226.73 50.8831L194.213 77.4896L153.27 116.602C147.141 122.458 140.515 127.77 133.466 132.479L116.72 143.669C98.7833 155.653 78.3105 163.312 56.9121 166.044C45.2171 167.536 33.3801 167.54 21.6843 166.054L-33.1361 159.088L-70.144 156.779C-92.5474 155.381 -114.767 161.586 -133.205 174.388C-151.412 187.031 -164.886 205.382 -171.496 226.54L-172.859 230.904C-180.436 255.155 -177.885 281.439 -165.787 303.781C-156.88 320.232 -143.272 333.654 -126.7 342.335L-121.384 345.12C-110.56 350.79 -98.8937 354.68 -86.8331 356.64L-50.9948 362.464L7.23103 374.173Z" fill="#447A8D"/>
<path d="M43.384 356.539L66.3765 361.931C79.4558 364.998 91.8296 370.533 102.834 378.239C115.351 387.003 125.914 398.546 133.606 411.749C138.76 420.596 142.683 430.248 145.128 440.191L148.347 453.284L154.472 482.482L163.494 517.03L165.733 523.677C170.976 539.241 180.312 553.107 192.761 563.819C200.747 570.691 209.861 576.131 219.699 579.901L220.762 580.308C234.409 585.537 249.054 587.641 263.62 586.466C282.489 584.944 300.511 577.98 315.5 566.418L316.501 565.646C324.549 559.438 331.609 552.044 337.439 543.717C354.602 519.207 359.948 488.323 352.025 459.47L351.171 456.362C349.17 449.074 346.404 442.017 342.92 435.31L315.629 382.765L300.796 346.227C296.888 336.6 294.278 326.497 293.033 316.182L292.089 308.353C289.775 289.164 292.242 269.7 299.272 251.696L307.403 230.871L319.653 209.034C324.832 199.8 328.569 189.828 330.735 179.465L332.781 169.673C336.202 153.296 334.039 136.245 326.637 121.241L325.771 119.487C319.906 107.598 310.706 97.6738 299.296 90.9253C281.405 80.3442 259.669 78.4883 240.244 85.883L238.813 86.4275C231.629 89.1624 224.933 93.0386 218.983 97.9067L192.97 119.192L160.215 150.482C155.312 155.166 150.011 159.416 144.372 163.184L130.975 172.135C116.626 181.723 100.248 187.85 83.1288 190.035C73.7729 191.229 64.3032 191.232 54.9466 190.043L11.0903 184.471L-18.516 182.623C-36.4387 181.505 -54.2143 186.469 -68.9646 196.711C-83.5305 206.825 -94.3096 221.506 -99.5977 238.432L-100.688 241.923C-106.75 261.324 -104.709 282.352 -95.0308 300.225C-87.9047 313.386 -77.018 324.124 -63.761 331.068L-59.5077 333.296C-50.8488 337.832 -41.5158 340.944 -31.8673 342.512L-3.19671 347.171L43.384 356.539Z" fill="#174B73"/>
<path d="M71.9076 342.431L90.3016 346.745C100.765 349.199 110.664 353.626 119.468 359.791C129.481 366.802 137.931 376.037 144.085 386.599C148.208 393.677 151.347 401.398 153.303 409.353L155.878 419.827L160.778 443.185L167.996 470.823L169.787 476.141C173.981 488.593 181.45 499.685 191.409 508.255C197.798 513.752 205.089 518.105 212.96 521.12L213.81 521.446C224.728 525.629 236.443 527.313 248.097 526.373C263.192 525.155 277.609 519.584 289.6 510.334L290.401 509.717C296.84 504.75 302.488 498.835 307.152 492.174C320.882 472.565 325.159 447.859 318.82 424.776L318.137 422.289C316.536 416.459 314.324 410.814 311.537 405.448L289.703 363.412L277.837 334.181C274.711 326.48 272.623 318.397 271.627 310.145L270.872 303.882C269.02 288.531 270.994 272.96 276.618 258.557L283.123 241.897L292.923 224.427C297.066 217.04 300.056 209.062 301.788 200.772L303.425 192.938C306.162 179.837 304.432 166.196 298.51 154.193L297.817 152.789C293.125 143.278 285.766 135.339 276.637 129.94C262.325 121.475 244.936 119.99 229.395 125.906L228.251 126.342C222.504 128.53 217.147 131.631 212.387 135.525L191.576 152.553L165.373 177.585C161.45 181.333 157.209 184.733 152.698 187.747L141.981 194.908C130.501 202.578 117.398 207.48 103.703 209.228C96.2187 210.183 88.643 210.185 81.1577 209.234L46.0727 204.776L22.3876 203.298C8.04944 202.404 -6.171 206.375 -17.9712 214.569C-29.624 222.66 -38.2473 234.405 -42.4777 247.946L-43.3503 250.738C-48.1993 266.259 -46.5669 283.081 -38.8242 297.38C-33.1233 307.908 -24.414 316.499 -13.8083 322.054L-10.4058 323.837C-3.47863 327.466 3.98776 329.955 11.7066 331.209L34.643 334.937L71.9076 342.431Z" fill="#447A8D"/>
</g>
<defs>
<clipPath id="clip0_1974_1060">
<rect width="375" height="812" fill="white"/>
</clipPath>
</defs>
</svg>
